Nepomuk-Italic.220409-1801.ufo
<glyph name="dollar" format="2">
  <advance width="594"/>
  <unicode hex="0024"/>
  <outline>
    <contour>
      <point x="163" y="-7" type="line"/>
      <point x="167" y="-7" type="line"/>
      <point x="99" y="14"/>
      <point x="46" y="71"/>
      <point x="46" y="145" type="curve" smooth="yes"/>
      <point x="46" y="195"/>
      <point x="77" y="254"/>
      <point x="133" y="254" type="curve" smooth="yes"/>
      <point x="168" y="254"/>
      <point x="193" y="237" name="hr01"/>
      <point x="193" y="206" type="curve" smooth="yes"/>
      <point x="193" y="179"/>
      <point x="172" y="157"/>
      <point x="132" y="157" type="curve" smooth="yes"/>
      <point x="111" y="157"/>
      <point x="105" y="131" name="hr02"/>
      <point x="105" y="115" type="curve" smooth="yes"/>
      <point x="105" y="76"/>
      <point x="131" y="44"/>
      <point x="173" y="28" type="curve"/>
      <point x="261" y="356" type="line"/>
      <point x="263" y="356" type="line"/>
      <point x="197" y="392"/>
      <point x="159" y="421"/>
      <point x="159" y="505" type="curve" smooth="yes"/>
      <point x="159" y="618"/>
      <point x="260" y="689"/>
      <point x="361" y="711" type="curve"/>
      <point x="357" y="711" type="line"/>
      <point x="376" y="780" type="line"/>
      <point x="419" y="780" type="line"/>
      <point x="401" y="717" type="line"/>
      <point x="417" y="717"/>
      <point x="432" y="717"/>
      <point x="448" y="715" type="curve"/>
      <point x="466" y="780" type="line"/>
      <point x="509" y="780" type="line"/>
      <point x="489" y="708" type="line"/>
      <point x="486" y="708" type="line"/>
      <point x="564" y="683"/>
      <point x="613" y="623"/>
      <point x="613" y="565" type="curve" smooth="yes"/>
      <point x="613" y="493"/>
      <point x="574" y="452"/>
      <point x="518" y="452" type="curve" smooth="yes"/>
      <point x="493" y="452"/>
      <point x="464" y="465"/>
      <point x="464" y="494" type="curve" smooth="yes"/>
      <point x="464" y="522"/>
      <point x="485" y="542"/>
      <point x="515" y="547" type="curve"/>
      <point x="544" y="553"/>
      <point x="558" y="558" name="hr03"/>
      <point x="558" y="590" type="curve" smooth="yes"/>
      <point x="558" y="621"/>
      <point x="529" y="657"/>
      <point x="479" y="673" type="curve"/>
      <point x="400" y="379" type="line"/>
      <point x="398" y="379" type="line"/>
      <point x="409" y="372"/>
      <point x="420" y="366"/>
      <point x="432" y="359" type="curve" smooth="yes"/>
      <point x="491" y="325"/>
      <point x="527" y="298"/>
      <point x="527" y="203" type="curve" smooth="yes"/>
      <point x="527" y="80"/>
      <point x="400" y="4"/>
      <point x="291" y="-12" type="curve"/>
      <point x="295" y="-12" type="line"/>
      <point x="275" y="-82" type="line"/>
      <point x="233" y="-82" type="line"/>
      <point x="251" y="-16" type="line"/>
      <point x="245" y="-16"/>
      <point x="238" y="-16"/>
      <point x="229" y="-16" type="curve" smooth="yes"/>
      <point x="222" y="-16"/>
      <point x="214" y="-15"/>
      <point x="205" y="-15" type="curve"/>
      <point x="204" y="-14" type="line"/>
      <point x="185" y="-82" type="line"/>
      <point x="142" y="-82" type="line"/>
    </contour>
    <contour>
      <point x="439" y="682" type="line"/>
      <point x="444" y="682" type="line"/>
      <point x="432" y="683" type="line"/>
      <point x="423" y="683"/>
      <point x="416" y="684"/>
      <point x="410" y="684" type="curve" smooth="yes"/>
      <point x="401" y="684"/>
      <point x="393" y="684"/>
      <point x="388" y="683" type="curve"/>
      <point x="392" y="683" type="line"/>
      <point x="322" y="424" type="line"/>
      <point x="320" y="424" type="line"/>
      <point x="363" y="399" type="line"/>
    </contour>
    <contour>
      <point x="347" y="674" type="line"/>
      <point x="284" y="656"/>
      <point x="226" y="613"/>
      <point x="226" y="542" type="curve" smooth="yes"/>
      <point x="226" y="498"/>
      <point x="242" y="470"/>
      <point x="265" y="456" type="curve" smooth="yes"/>
      <point x="285" y="444" type="line"/>
    </contour>
    <contour>
      <point x="238" y="16" type="curve" smooth="yes"/>
      <point x="249" y="16"/>
      <point x="258" y="16"/>
      <point x="263" y="17" type="curve"/>
      <point x="259" y="17" type="line"/>
      <point x="339" y="311" type="line"/>
      <point x="341" y="311" type="line"/>
      <point x="299" y="336" type="line"/>
      <point x="213" y="18" type="line"/>
      <point x="208" y="18" type="line"/>
      <point x="214" y="17" type="line"/>
      <point x="224" y="17"/>
      <point x="232" y="16"/>
    </contour>
    <contour>
      <point x="303" y="23" type="line"/>
      <point x="394" y="43"/>
      <point x="444" y="99"/>
      <point x="444" y="178" type="curve" smooth="yes"/>
      <point x="444" y="243"/>
      <point x="424" y="264"/>
      <point x="392" y="283" type="curve" smooth="yes"/>
      <point x="377" y="292" type="line"/>
    </contour>
  </outline>
</glyph>
<glyph name="quotesingle" format="2">
  <advance width="191"/>
  <unicode hex="0027"/>
  <outline>
    <contour>
      <point x="197" y="682" type="line" smooth="yes"/>
      <point x="200" y="706"/>
      <point x="221" y="748"/>
      <point x="248" y="748" type="qcurve" smooth="yes"/>
      <point x="272" y="748"/>
      <point x="272" y="721" type="qcurve" smooth="yes"/>
      <point x="273" y="709"/>
      <point x="264" y="687" type="qcurve" smooth="yes"/>
      <point x="201" y="532" type="line"/>
      <point x="176" y="532" type="line"/>
    </contour>
  </outline>
</glyph>
<glyph name="plus" format="2">
  <advance width="594"/>
  <unicode hex="002B"/>
  <outline>
    <contour>
      <point x="311" y="300" type="line"/>
      <point x="311" y="502" type="line"/>
      <point x="265" y="502" type="line"/>
      <point x="265" y="300" type="line"/>
      <point x="63" y="300" type="line"/>
      <point x="63" y="254" type="line"/>
      <point x="265" y="254" type="line"/>
      <point x="265" y="52" type="line"/>
      <point x="311" y="52" type="line"/>
      <point x="311" y="254" type="line"/>
      <point x="513" y="254" type="line"/>
      <point x="513" y="300" type="line"/>
    </contour>
  </outline>
</glyph>
<glyph name="comma" format="2">
  <advance width="255"/>
  <unicode hex="002C"/>
  <outline>
    <contour>
      <point x="101" y="135" type="curve" smooth="yes"/>
      <point x="66" y="135"/>
      <point x="36" y="109"/>
      <point x="36" y="70" type="curve" smooth="yes"/>
      <point x="36" y="39"/>
      <point x="58" y="12"/>
      <point x="84" y="4" type="curve"/>
      <point x="95" y="0"/>
      <point x="103" y="-5" name="hr01"/>
      <point x="103" y="-14" type="curve" smooth="yes"/>
      <point x="103" y="-63"/>
      <point x="21" y="-113"/>
      <point x="-40" y="-135" type="curve"/>
      <point x="-28" y="-163" type="line"/>
      <point x="78" y="-123"/>
      <point x="175" y="-56"/>
      <point x="175" y="51" type="curve" smooth="yes"/>
      <point x="175" y="91"/>
      <point x="149" y="135"/>
    </contour>
  </outline>
</glyph>
<glyph name="slash" format="2">
  <advance width="328"/>
  <unicode hex="002F"/>
  <outline>
    <contour>
      <point x="306" y="754" type="line"/>
      <point x="-41" y="-123" type="line"/>
      <point x="6" y="-123" type="line"/>
      <point x="353" y="754" type="line"/>
    </contour>
  </outline>
</glyph>
<glyph name="nine" format="2">
  <advance width="537"/>
  <unicode hex="0039"/>
  <outline>
    <contour>
      <point x="145" y="109" type="curve" smooth="yes"/>
      <point x="145" y="146"/>
      <point x="121" y="173"/>
      <point x="82" y="173" type="curve" smooth="yes"/>
      <point x="43" y="173"/>
      <point x="6" y="141"/>
      <point x="6" y="91" type="curve" smooth="yes"/>
      <point x="6" y="29"/>
      <point x="73" y="-12"/>
      <point x="152" y="-12" type="curve" smooth="yes"/>
      <point x="345" y="-12"/>
      <point x="536" y="282"/>
      <point x="536" y="488" type="curve" smooth="yes"/>
      <point x="536" y="605"/>
      <point x="480" y="692"/>
      <point x="349" y="692" type="curve" smooth="yes"/>
      <point x="220" y="692"/>
      <point x="103" y="574" name="hr01"/>
      <point x="103" y="425" type="curve" smooth="yes"/>
      <point x="103" y="333"/>
      <point x="159" y="267"/>
      <point x="255" y="267" type="curve" smooth="yes"/>
      <point x="308" y="267"/>
      <point x="349" y="282"/>
      <point x="391" y="308" type="curve"/>
      <point x="352" y="179"/>
      <point x="264" y="23"/>
      <point x="149" y="23" type="curve" smooth="yes"/>
      <point x="120" y="23"/>
      <point x="112" y="41"/>
      <point x="125" y="56" type="curve" smooth="yes"/>
      <point x="141" y="74"/>
      <point x="145" y="91" name="hr02"/>
    </contour>
    <contour>
      <point x="201" y="411" type="curve" smooth="yes"/>
      <point x="201" y="528" name="hr03"/>
      <point x="266" y="653"/>
      <point x="362" y="653" type="curve" smooth="yes"/>
      <point x="452" y="653"/>
      <point x="460" y="533"/>
      <point x="438" y="460" type="curve" smooth="yes"/>
      <point x="419" y="395" type="line" smooth="yes"/>
      <point x="403" y="340"/>
      <point x="333" y="312"/>
      <point x="285" y="312" type="curve" smooth="yes"/>
      <point x="228" y="312"/>
      <point x="201" y="358"/>
    </contour>
  </outline>
</glyph>
<glyph name="B" format="2">
  <advance width="643"/>
  <unicode hex="0042"/>
  <outline>
    <contour>
      <point x="281" y="384" type="line"/>
      <point x="344" y="604" type="line" smooth="yes"/>
      <point x="353" y="634"/>
      <point x="379" y="644"/>
      <point x="416" y="644" type="curve" smooth="yes"/>
      <point x="431" y="644" type="line" smooth="yes"/>
      <point x="479" y="644"/>
      <point x="509" y="614"/>
      <point x="509" y="563" type="curve" smooth="yes"/>
      <point x="509" y="548"/>
      <point x="506" y="532"/>
      <point x="501" y="514" type="curve" smooth="yes"/>
      <point x="474" y="419"/>
      <point x="425" y="384"/>
      <point x="337" y="384" type="curve" smooth="yes"/>
    </contour>
    <contour>
      <point x="457" y="362" type="curve"/>
      <point x="457" y="374" type="line"/>
      <point x="558" y="390"/>
      <point x="607" y="451"/>
      <point x="618" y="514" type="curve" smooth="yes"/>
      <point x="620" y="524"/>
      <point x="621" y="534"/>
      <point x="621" y="543" type="curve" smooth="yes"/>
      <point x="621" y="626"/>
      <point x="548" y="680"/>
      <point x="430" y="680" type="curve" smooth="yes"/>
      <point x="165" y="680" type="line"/>
      <point x="155" y="645" type="line"/>
      <point x="205" y="645" type="line" smooth="yes"/>
      <point x="232" y="645"/>
      <point x="245" y="636"/>
      <point x="245" y="616" type="curve" smooth="yes"/>
      <point x="245" y="610"/>
      <point x="243" y="603"/>
      <point x="241" y="595" type="curve"/>
      <point x="94" y="85" type="line" smooth="yes"/>
      <point x="84" y="50"/>
      <point x="65" y="35"/>
      <point x="30" y="35" type="curve" smooth="yes"/>
      <point x="0" y="35" type="line"/>
      <point x="-10" y="0" type="line"/>
      <point x="266" y="0" type="line" smooth="yes"/>
      <point x="431" y="0"/>
      <point x="562" y="43"/>
      <point x="588" y="190" type="curve" smooth="yes"/>
      <point x="590" y="200"/>
      <point x="591" y="210" name="hr01"/>
      <point x="591" y="219" type="curve" smooth="yes"/>
      <point x="591" y="291"/>
      <point x="542" y="350"/>
    </contour>
    <contour>
      <point x="267" y="36" type="curve" smooth="yes"/>
      <point x="254" y="36" type="line" smooth="yes"/>
      <point x="235" y="36"/>
      <point x="191" y="43"/>
      <point x="191" y="69" type="curve"/>
      <point x="191" y="71"/>
      <point x="191" y="73"/>
      <point x="192" y="76" type="curve"/>
      <point x="270" y="348" type="line"/>
      <point x="343" y="348" type="line" smooth="yes"/>
      <point x="433" y="348"/>
      <point x="475" y="314"/>
      <point x="475" y="236" type="curve" smooth="yes"/>
      <point x="475" y="113"/>
      <point x="399" y="36"/>
    </contour>
  </outline>
</glyph>
<glyph name="H" format="2">
  <advance width="761"/>
  <unicode hex="0048"/>
  <outline>
    <contour>
      <point x="712" y="595" type="line" smooth="yes"/>
      <point x="722" y="630"/>
      <point x="741" y="645"/>
      <point x="776" y="645" type="curve" smooth="yes"/>
      <point x="811" y="645" type="line"/>
      <point x="821" y="680" type="line"/>
      <point x="541" y="680" type="line"/>
      <point x="531" y="645" type="line"/>
      <point x="576" y="645" type="line" smooth="yes"/>
      <point x="611" y="645"/>
      <point x="622" y="630"/>
      <point x="612" y="595" type="curve" smooth="yes"/>
      <point x="545" y="361" type="line"/>
      <point x="279" y="361" type="line"/>
      <point x="346" y="595" type="line" smooth="yes"/>
      <point x="356" y="630"/>
      <point x="375" y="645"/>
      <point x="410" y="645" type="curve" smooth="yes"/>
      <point x="445" y="645" type="line"/>
      <point x="455" y="680" type="line"/>
      <point x="175" y="680" type="line"/>
      <point x="165" y="645" type="line"/>
      <point x="210" y="645" type="line" smooth="yes"/>
      <point x="245" y="645"/>
      <point x="256" y="630"/>
      <point x="246" y="595" type="curve" smooth="yes"/>
      <point x="99" y="85" type="line" smooth="yes"/>
      <point x="89" y="50"/>
      <point x="70" y="35"/>
      <point x="35" y="35" type="curve" smooth="yes"/>
      <point x="0" y="35" type="line"/>
      <point x="-10" y="0" type="line"/>
      <point x="270" y="0" type="line"/>
      <point x="280" y="35" type="line"/>
      <point x="235" y="35" type="line" smooth="yes"/>
      <point x="200" y="35"/>
      <point x="190" y="50"/>
      <point x="200" y="85" type="curve" smooth="yes"/>
      <point x="269" y="326" type="line"/>
      <point x="534" y="326" type="line"/>
      <point x="465" y="85" type="line" smooth="yes"/>
      <point x="455" y="50"/>
      <point x="436" y="35"/>
      <point x="401" y="35" type="curve" smooth="yes"/>
      <point x="366" y="35" type="line"/>
      <point x="356" y="0" type="line"/>
      <point x="636" y="0" type="line"/>
      <point x="646" y="35" type="line"/>
      <point x="601" y="35" type="line" smooth="yes"/>
      <point x="566" y="35"/>
      <point x="556" y="50"/>
      <point x="566" y="85" type="curve" smooth="yes"/>
    </contour>
  </outline>
</glyph>
<glyph name="P" format="2">
  <advance width="603"/>
  <unicode hex="0050"/>
  <outline>
    <contour>
      <point x="194" y="85" type="curve"/>
      <point x="264" y="328" type="line"/>
      <point x="348" y="328" type="line" smooth="yes"/>
      <point x="505" y="328"/>
      <point x="621" y="391"/>
      <point x="638" y="504" type="curve"/>
      <point x="640" y="514"/>
      <point x="640" y="524"/>
      <point x="640" y="534" type="curve" smooth="yes"/>
      <point x="640" y="623"/>
      <point x="574" y="680"/>
      <point x="450" y="680" type="curve" smooth="yes"/>
      <point x="165" y="680" type="line"/>
      <point x="155" y="645" type="line"/>
      <point x="205" y="645" type="line" smooth="yes"/>
      <point x="232" y="645"/>
      <point x="245" y="636"/>
      <point x="245" y="616" type="curve" smooth="yes"/>
      <point x="245" y="610"/>
      <point x="243" y="603"/>
      <point x="241" y="595" type="curve"/>
      <point x="94" y="85" type="line" smooth="yes"/>
      <point x="84" y="50"/>
      <point x="65" y="35"/>
      <point x="30" y="35" type="curve" smooth="yes"/>
      <point x="0" y="35" type="line"/>
      <point x="-10" y="0" type="line"/>
      <point x="290" y="0" type="line"/>
      <point x="300" y="35" type="line"/>
      <point x="230" y="35" type="line" smooth="yes"/>
      <point x="203" y="35"/>
      <point x="190" y="44"/>
      <point x="190" y="64" type="curve" smooth="yes"/>
      <point x="190" y="70"/>
      <point x="192" y="77"/>
    </contour>
    <contour>
      <point x="274" y="364" type="line"/>
      <point x="343" y="604" type="line" smooth="yes"/>
      <point x="352" y="636"/>
      <point x="402" y="644"/>
      <point x="423" y="644" type="curve" smooth="yes"/>
      <point x="430" y="644" type="line" smooth="yes"/>
      <point x="486" y="644"/>
      <point x="526" y="625"/>
      <point x="526" y="561" type="curve" smooth="yes"/>
      <point x="526" y="545"/>
      <point x="523" y="526"/>
      <point x="518" y="504" type="curve" smooth="yes"/>
      <point x="491" y="392"/>
      <point x="420" y="364"/>
      <point x="350" y="364" type="curve" smooth="yes"/>
    </contour>
  </outline>
</glyph>
<glyph name="Z" format="2">
  <advance width="593"/>
  <unicode hex="005A"/>
  <outline>
    <contour>
      <point x="480" y="0" type="line"/>
      <point x="547" y="263" type="line"/>
      <point x="517" y="263" type="line"/>
      <point x="453" y="142"/>
      <point x="393" y="36"/>
      <point x="256" y="36" type="curve" smooth="yes"/>
      <point x="160" y="36" type="line" smooth="yes"/>
      <point x="138" y="36"/>
      <point x="127" y="46"/>
      <point x="146" y="70" type="curve" smooth="yes"/>
      <point x="623" y="660" type="line"/>
      <point x="623" y="680" type="line"/>
      <point x="165" y="680" type="line"/>
      <point x="101" y="432" type="line"/>
      <point x="131" y="432" type="line"/>
      <point x="209" y="573"/>
      <point x="254" y="644"/>
      <point x="374" y="644" type="curve" smooth="yes"/>
      <point x="442" y="644" type="line" smooth="yes"/>
      <point x="460" y="644"/>
      <point x="482" y="638"/>
      <point x="459" y="610" type="curve" smooth="yes"/>
      <point x="-20" y="20" type="line"/>
      <point x="-20" y="0" type="line"/>
    </contour>
  </outline>
</glyph>
<glyph name="bracketright" format="2">
  <advance width="292"/>
  <unicode hex="005D"/>
  <outline>
    <contour>
      <point x="54" y="-137" type="line"/>
      <point x="-80" y="-137" type="line"/>
      <point x="-90" y="-179" type="line"/>
      <point x="118" y="-179" type="line"/>
      <point x="345" y="740" type="line"/>
      <point x="117" y="740" type="line"/>
      <point x="107" y="698" type="line"/>
      <point x="261" y="698" type="line"/>
    </contour>
  </outline>
</glyph>
<glyph name="grave" format="2">
  <advance width="220"/>
  <unicode hex="0060"/>
  <outline>
    <contour>
      <point x="117" y="694" type="curve"/>
      <point x="7" y="706" type="line"/>
      <point x="0" y="686" type="line"/>
      <point x="44" y="652"/>
      <point x="164" y="566"/>
      <point x="212" y="540" type="curve"/>
      <point x="220" y="562" type="line"/>
      <point x="188" y="593"/>
      <point x="140" y="654"/>
    </contour>
  </outline>
</glyph>
<glyph name="s" format="2">
  <advance width="418"/>
  <unicode hex="0073"/>
  <outline>
    <contour>
      <point x="91" y="54" type="curve" smooth="yes"/>
      <point x="91" y="71"/>
      <point x="113" y="79" name="hr01"/>
      <point x="113" y="111" type="curve" smooth="yes"/>
      <point x="113" y="140"/>
      <point x="89" y="160"/>
      <point x="61" y="160" type="curve" smooth="yes"/>
      <point x="32" y="160"/>
      <point x="5" y="139"/>
      <point x="5" y="98" type="curve" smooth="yes"/>
      <point x="5" y="42"/>
      <point x="84" y="-12"/>
      <point x="157" y="-12" type="curve" smooth="yes"/>
      <point x="263" y="-12"/>
      <point x="353" y="54"/>
      <point x="353" y="126" type="curve" smooth="yes"/>
      <point x="353" y="184"/>
      <point x="299" y="231"/>
      <point x="238" y="274" type="curve" smooth="yes"/>
      <point x="204" y="298"/>
      <point x="165" y="334" name="hr02"/>
      <point x="165" y="364" type="curve" smooth="yes"/>
      <point x="165" y="406"/>
      <point x="209" y="434"/>
      <point x="265" y="434" type="curve" smooth="yes"/>
      <point x="294" y="434"/>
      <point x="314" y="425"/>
      <point x="314" y="412" type="curve" smooth="yes"/>
      <point x="314" y="389"/>
      <point x="289" y="389" name="hr03"/>
      <point x="289" y="361" type="curve" smooth="yes"/>
      <point x="289" y="333"/>
      <point x="312" y="314"/>
      <point x="340" y="314" type="curve" smooth="yes"/>
      <point x="367" y="314"/>
      <point x="393" y="336"/>
      <point x="393" y="372" type="curve" smooth="yes"/>
      <point x="393" y="427"/>
      <point x="333" y="462"/>
      <point x="266" y="462" type="curve" smooth="yes"/>
      <point x="178" y="462"/>
      <point x="79" y="416"/>
      <point x="79" y="338" type="curve" smooth="yes"/>
      <point x="79" y="278"/>
      <point x="129" y="243"/>
      <point x="175" y="211" type="curve" smooth="yes"/>
      <point x="232" y="171"/>
      <point x="263" y="138" name="hr04"/>
      <point x="263" y="98" type="curve" smooth="yes"/>
      <point x="263" y="48"/>
      <point x="210" y="18"/>
      <point x="153" y="18" type="curve" smooth="yes"/>
      <point x="114" y="18"/>
      <point x="91" y="35"/>
    </contour>
  </outline>
</glyph>
<glyph name="u" format="2">
  <advance width="544"/>
  <unicode hex="0075"/>
  <outline>
    <contour>
      <point x="310" y="109" type="curve"/>
      <point x="318" y="109" type="line"/>
      <point x="300" y="50"/>
      <point x="313" y="-12"/>
      <point x="377" y="-12" type="curve" smooth="yes"/>
      <point x="445" y="-12"/>
      <point x="493" y="57"/>
      <point x="519" y="140" type="curve"/>
      <point x="491" y="149" type="line"/>
      <point x="472" y="92"/>
      <point x="436" y="32" name="hr01"/>
      <point x="409" y="32" type="curve" smooth="yes"/>
      <point x="372" y="32"/>
      <point x="388" y="68"/>
      <point x="410" y="138" type="curve" smooth="yes"/>
      <point x="511" y="450" type="line"/>
      <point x="421" y="450" type="line"/>
      <point x="353" y="241" type="line" smooth="yes"/>
      <point x="316" y="128"/>
      <point x="219" y="26" name="hr02"/>
      <point x="182" y="26" type="curve" smooth="yes"/>
      <point x="149" y="26"/>
      <point x="149" y="83"/>
      <point x="186" y="181" type="curve" smooth="yes"/>
      <point x="235" y="312" type="line" smooth="yes"/>
      <point x="267" y="395"/>
      <point x="248" y="462"/>
      <point x="178" y="462" type="curve" smooth="yes"/>
      <point x="110" y="462"/>
      <point x="61" y="392"/>
      <point x="35" y="309" type="curve"/>
      <point x="64" y="301" type="line"/>
      <point x="83" y="358"/>
      <point x="119" y="418"/>
      <point x="146" y="418" type="curve" smooth="yes"/>
      <point x="183" y="418"/>
      <point x="173" y="385"/>
      <point x="145" y="312" type="curve" smooth="yes"/>
      <point x="96" y="181" type="line" smooth="yes"/>
      <point x="54" y="70"/>
      <point x="90" y="-12"/>
      <point x="160" y="-12" type="curve" smooth="yes"/>
      <point x="201" y="-12"/>
      <point x="269" y="42"/>
    </contour>
  </outline>
</glyph>
<glyph name="bar" format="2">
  <advance width="291"/>
  <unicode hex="007C"/>
  <outline>
    <contour>
      <point x="147" y="-203" type="line"/>
      <point x="147" y="748" type="line"/>
      <point x="193" y="748" type="line"/>
      <point x="193" y="-203" type="line"/>
    </contour>
  </outline>
</glyph>
<glyph name="uni0080" format="2">
  <advance width="294"/>
  <unicode hex="0080"/>
  <outline>
    <contour>
      <point x="422" y="414" type="curve" smooth="yes"/>
      <point x="462" y="414"/>
      <point x="437" y="305"/>
      <point x="423" y="261" type="curve" smooth="yes"/>
      <point x="338" y="0" type="line"/>
      <point x="428" y="0" type="line"/>
      <point x="504" y="233" type="line" smooth="yes"/>
      <point x="526" y="301"/>
      <point x="549" y="359"/>
      <point x="591" y="393" type="curve" smooth="yes"/>
      <point x="608" y="407"/>
      <point x="621" y="401"/>
      <point x="624" y="373" type="curve" smooth="yes"/>
      <point x="627" y="343"/>
      <point x="648" y="327" name="hr01"/>
      <point x="673" y="327" type="curve" smooth="yes"/>
      <point x="707" y="327"/>
      <point x="729" y="359"/>
      <point x="729" y="396" type="curve" smooth="yes"/>
      <point x="729" y="434"/>
      <point x="697" y="463"/>
      <point x="659" y="463" type="curve" smooth="yes"/>
      <point x="619" y="463"/>
      <point x="571" y="424"/>
      <point x="528" y="365" type="curve"/>
      <point x="525" y="416"/>
      <point x="505" y="458" name="hr02"/>
      <point x="451" y="458" type="curve" smooth="yes"/>
      <point x="379" y="458"/>
      <point x="324" y="366"/>
      <point x="285" y="240" type="curve"/>
      <point x="315" y="240" type="line"/>
      <point x="350" y="344"/>
      <point x="391" y="414"/>
    </contour>
    <contour>
      <point x="38" y="418" type="line"/>
      <point x="120" y="418" type="line" name="hr03"/>
      <point x="30" y="142" type="line" smooth="yes"/>
      <point x="23" y="122"/>
      <point x="20" y="102"/>
      <point x="20" y="84" type="curve" smooth="yes"/>
      <point x="20" y="30"/>
      <point x="50" y="-8"/>
      <point x="107" y="-8" type="curve" smooth="yes"/>
      <point x="167" y="-8"/>
      <point x="236" y="50"/>
      <point x="274" y="171" type="curve"/>
      <point x="244" y="171" type="line"/>
      <point x="209" y="67"/>
      <point x="151" y="36"/>
      <point x="126" y="36" type="curve" smooth="yes"/>
      <point x="107" y="36"/>
      <point x="100" y="44"/>
      <point x="100" y="61" type="curve" smooth="yes"/>
      <point x="100" y="79"/>
      <point x="108" y="106"/>
      <point x="120" y="142" type="curve" smooth="yes"/>
      <point x="210" y="418" type="line"/>
      <point x="309" y="418" type="line"/>
      <point x="319" y="450" type="line"/>
      <point x="220" y="450" type="line"/>
      <point x="276" y="621" type="line"/>
      <point x="174" y="584" type="line"/>
      <point x="130" y="450" type="line"/>
      <point x="48" y="450" type="line"/>
    </contour>
  </outline>
</glyph>
<glyph name="degree" format="2">
  <advance width="216"/>
  <unicode hex="00B0"/>
  <outline>
    <contour>
      <point x="37" y="638" type="curve" smooth="yes"/>
      <point x="37" y="680"/>
      <point x="69" y="709"/>
      <point x="108" y="709" type="curve" smooth="yes"/>
      <point x="150" y="709"/>
      <point x="179" y="677"/>
      <point x="179" y="638" type="curve" smooth="yes"/>
      <point x="179" y="596"/>
      <point x="147" y="567"/>
      <point x="108" y="567" type="curve" smooth="yes"/>
      <point x="66" y="567"/>
      <point x="37" y="599"/>
    </contour>
    <contour>
      <point x="0" y="638" type="curve" smooth="yes"/>
      <point x="0" y="580"/>
      <point x="46" y="530"/>
      <point x="108" y="530" type="curve" smooth="yes"/>
      <point x="166" y="530"/>
      <point x="216" y="576"/>
      <point x="216" y="638" type="curve" smooth="yes"/>
      <point x="216" y="696"/>
      <point x="170" y="746"/>
      <point x="108" y="746" type="curve" smooth="yes"/>
      <point x="50" y="746"/>
      <point x="0" y="700"/>
    </contour>
  </outline>
</glyph>
<glyph name="plusminus" format="2">
  <advance width="576"/>
  <unicode hex="00B1"/>
  <outline>
    <contour>
      <point x="496" y="65" type="line"/>
      <point x="80" y="65" type="line"/>
      <point x="80" y="15" type="line"/>
      <point x="496" y="15" type="line"/>
    </contour>
    <contour>
      <point x="313" y="331" type="line"/>
      <point x="313" y="504" type="line"/>
      <point x="263" y="504" type="line"/>
      <point x="263" y="331" type="line"/>
      <point x="90" y="331" type="line"/>
      <point x="90" y="281" type="line"/>
      <point x="263" y="281" type="line"/>
      <point x="263" y="108" type="line"/>
      <point x="313" y="108" type="line"/>
      <point x="313" y="281" type="line"/>
      <point x="486" y="281" type="line"/>
      <point x="486" y="331" type="line"/>
    </contour>
  </outline>
</glyph>
<glyph name="threesuperior" format="2">
  <advance width="441"/>
  <unicode hex="00B3"/>
  <outline>
    <contour>
      <point x="307" y="469" type="curve"/>
      <point x="307" y="476" type="line"/>
      <point x="378" y="481"/>
      <point x="448" y="526"/>
      <point x="448" y="594" type="curve" smooth="yes"/>
      <point x="448" y="651"/>
      <point x="390" y="692"/>
      <point x="327" y="692" type="curve" smooth="yes"/>
      <point x="267" y="692"/>
      <point x="202" y="659"/>
      <point x="202" y="614" type="curve" smooth="yes"/>
      <point x="202" y="590"/>
      <point x="216" y="569" name="hr01"/>
      <point x="243" y="569" type="curve" smooth="yes"/>
      <point x="270" y="569"/>
      <point x="288" y="587"/>
      <point x="288" y="610" type="curve" smooth="yes"/>
      <point x="288" y="622"/>
      <point x="283" y="633"/>
      <point x="274" y="640" type="curve"/>
      <point x="260" y="652"/>
      <point x="268" y="662"/>
      <point x="288" y="667" type="curve" smooth="yes"/>
      <point x="296" y="669"/>
      <point x="306" y="670" name="hr02"/>
      <point x="315" y="670" type="curve" smooth="yes"/>
      <point x="352" y="670"/>
      <point x="382" y="647" name="hr03"/>
      <point x="382" y="606" type="curve" smooth="yes"/>
      <point x="382" y="510"/>
      <point x="316" y="486"/>
      <point x="223" y="494" type="curve"/>
      <point x="219" y="475" type="line"/>
      <point x="275" y="468"/>
      <point x="315" y="432" name="hr04"/>
      <point x="315" y="381" type="curve" smooth="yes"/>
      <point x="315" y="314"/>
      <point x="270" y="266"/>
      <point x="215" y="266" type="curve" smooth="yes"/>
      <point x="196" y="266"/>
      <point x="179" y="271"/>
      <point x="165" y="278" type="curve" smooth="yes"/>
      <point x="144" y="290"/>
      <point x="153" y="301"/>
      <point x="168" y="307" type="curve" smooth="yes"/>
      <point x="188" y="314"/>
      <point x="199" y="333"/>
      <point x="199" y="353" type="curve" smooth="yes"/>
      <point x="199" y="380"/>
      <point x="176" y="401" name="hr05"/>
      <point x="150" y="401" type="curve" smooth="yes"/>
      <point x="125" y="401"/>
      <point x="98" y="383"/>
      <point x="98" y="343" type="curve" smooth="yes"/>
      <point x="98" y="287"/>
      <point x="153" y="242"/>
      <point x="232" y="242" type="curve" smooth="yes"/>
      <point x="335" y="242"/>
      <point x="385" y="308"/>
      <point x="385" y="365" type="curve" smooth="yes"/>
      <point x="385" y="408"/>
      <point x="352" y="454"/>
    </contour>
  </outline>
</glyph>
<glyph name="Atilde" format="2">
  <advance width="661"/>
  <unicode hex="00C3"/>
  <outline>
    <contour>
      <point x="341" y="782" type="curve" smooth="yes"/>
      <point x="378" y="782"/>
      <point x="433" y="720"/>
      <point x="483" y="720" type="curve" smooth="yes"/>
      <point x="533" y="720"/>
      <point x="568" y="776"/>
      <point x="584" y="818" type="curve"/>
      <point x="562" y="826" type="line"/>
      <point x="550" y="801"/>
      <point x="532" y="778"/>
      <point x="506" y="778" type="curve" smooth="yes"/>
      <point x="469" y="778"/>
      <point x="414" y="840"/>
      <point x="364" y="840" type="curve" smooth="yes"/>
      <point x="314" y="840"/>
      <point x="279" y="784"/>
      <point x="263" y="742" type="curve"/>
      <point x="285" y="734" type="line"/>
      <point x="297" y="759"/>
      <point x="315" y="782"/>
    </contour>
    <contour>
      <point x="200" y="252" type="line"/>
      <point x="380" y="559" type="line"/>
      <point x="413" y="252" type="line"/>
    </contour>
    <contour>
      <point x="179" y="217" type="line"/>
      <point x="417" y="217" type="line"/>
      <point x="428" y="109" type="line" smooth="yes"/>
      <point x="434" y="50"/>
      <point x="415" y="35"/>
      <point x="366" y="35" type="curve" smooth="yes"/>
      <point x="338" y="35" type="line"/>
      <point x="328" y="0" type="line"/>
      <point x="623" y="0" type="line"/>
      <point x="633" y="35" type="line"/>
      <point x="599" y="35" type="line" smooth="yes"/>
      <point x="566" y="35"/>
      <point x="541" y="42"/>
      <point x="533" y="106" type="curve" smooth="yes"/>
      <point x="461" y="692" type="line"/>
      <point x="412" y="692" type="line"/>
      <point x="73" y="116" type="line"/>
      <point x="27" y="36"/>
      <point x="-10" y="35"/>
      <point x="-45" y="35" type="curve" smooth="yes"/>
      <point x="-70" y="35" type="line"/>
      <point x="-80" y="0" type="line"/>
      <point x="175" y="0" type="line"/>
      <point x="185" y="35" type="line"/>
      <point x="158" y="35" type="line" smooth="yes"/>
      <point x="98" y="35"/>
      <point x="79" y="47"/>
      <point x="120" y="117" type="curve" smooth="yes"/>
    </contour>
  </outline>
</glyph>
<glyph name="Edieresis" format="2">
  <advance width="658"/>
  <unicode hex="00CB"/>
  <outline>
    <contour>
      <point x="513" y="769" type="curve" smooth="yes"/>
      <point x="513" y="740"/>
      <point x="536" y="717"/>
      <point x="565" y="717" type="curve" smooth="yes"/>
      <point x="594" y="717"/>
      <point x="617" y="740"/>
      <point x="617" y="769" type="curve" smooth="yes"/>
      <point x="617" y="798"/>
      <point x="594" y="821"/>
      <point x="565" y="821" type="curve" smooth="yes"/>
      <point x="536" y="821"/>
      <point x="513" y="798"/>
    </contour>
    <contour>
      <point x="319" y="769" type="curve" smooth="yes"/>
      <point x="319" y="740"/>
      <point x="342" y="717"/>
      <point x="371" y="717" type="curve" smooth="yes"/>
      <point x="400" y="717"/>
      <point x="423" y="740"/>
      <point x="423" y="769" type="curve" smooth="yes"/>
      <point x="423" y="798"/>
      <point x="400" y="821"/>
      <point x="371" y="821" type="curve" smooth="yes"/>
      <point x="342" y="821"/>
      <point x="319" y="798"/>
    </contour>
    <contour>
      <point x="165" y="680" type="line"/>
      <point x="155" y="645" type="line"/>
      <point x="205" y="645" type="line" smooth="yes"/>
      <point x="240" y="645"/>
      <point x="251" y="630"/>
      <point x="241" y="595" type="curve" smooth="yes"/>
      <point x="94" y="85" type="line" smooth="yes"/>
      <point x="84" y="50"/>
      <point x="65" y="35"/>
      <point x="30" y="35" type="curve" smooth="yes"/>
      <point x="0" y="35" type="line"/>
      <point x="-10" y="0" type="line"/>
      <point x="523" y="0" type="line"/>
      <point x="608" y="280" type="line"/>
      <point x="578" y="280" type="line"/>
      <point x="521" y="159"/>
      <point x="447" y="36"/>
      <point x="304" y="36" type="curve" smooth="yes"/>
      <point x="231" y="36" type="line" smooth="yes"/>
      <point x="205" y="36"/>
      <point x="185" y="55"/>
      <point x="192" y="79" type="curve" smooth="yes"/>
      <point x="267" y="337" type="line"/>
      <point x="317" y="337" type="line" smooth="yes"/>
      <point x="380" y="337"/>
      <point x="403" y="279"/>
      <point x="382" y="175" type="curve"/>
      <point x="415" y="175" type="line"/>
      <point x="512" y="512" type="line"/>
      <point x="479" y="512" type="line"/>
      <point x="446" y="425"/>
      <point x="400" y="372"/>
      <point x="340" y="372" type="curve" smooth="yes"/>
      <point x="277" y="372" type="line"/>
      <point x="343" y="604" type="line" smooth="yes"/>
      <point x="350" y="628"/>
      <point x="389" y="644"/>
      <point x="419" y="644" type="curve" smooth="yes"/>
      <point x="482" y="644" type="line" smooth="yes"/>
      <point x="586" y="644"/>
      <point x="619" y="571"/>
      <point x="610" y="445" type="curve"/>
      <point x="639" y="445" type="line"/>
      <point x="687" y="680" type="line"/>
    </contour>
  </outline>
</glyph>
<glyph name="Igrave" format="2">
  <advance width="393"/>
  <unicode hex="00CC"/>
  <outline>
    <contour>
      <point x="333" y="858" type="curve"/>
      <point x="223" y="870" type="line"/>
      <point x="216" y="850" type="line"/>
      <point x="260" y="816"/>
      <point x="380" y="730"/>
      <point x="428" y="704" type="curve"/>
      <point x="436" y="726" type="line"/>
      <point x="404" y="757"/>
      <point x="356" y="818"/>
    </contour>
    <contour>
      <point x="351" y="595" type="line" smooth="yes"/>
      <point x="361" y="630"/>
      <point x="380" y="645"/>
      <point x="415" y="645" type="curve" smooth="yes"/>
      <point x="450" y="645" type="line"/>
      <point x="460" y="680" type="line"/>
      <point x="175" y="680" type="line"/>
      <point x="165" y="645" type="line"/>
      <point x="210" y="645" type="line" smooth="yes"/>
      <point x="245" y="645"/>
      <point x="256" y="630"/>
      <point x="246" y="595" type="curve" smooth="yes"/>
      <point x="99" y="85" type="line" smooth="yes"/>
      <point x="89" y="50"/>
      <point x="70" y="35"/>
      <point x="35" y="35" type="curve" smooth="yes"/>
      <point x="0" y="35" type="line"/>
      <point x="-10" y="0" type="line"/>
      <point x="275" y="0" type="line"/>
      <point x="285" y="35" type="line"/>
      <point x="240" y="35" type="line" smooth="yes"/>
      <point x="205" y="35"/>
      <point x="195" y="50"/>
      <point x="205" y="85" type="curve" smooth="yes"/>
    </contour>
  </outline>
</glyph>
<glyph name="Idieresis" format="2">
  <advance width="393"/>
  <unicode hex="00CF"/>
  <outline>
    <contour>
      <point x="375" y="765" type="curve" smooth="yes"/>
      <point x="375" y="736"/>
      <point x="398" y="713"/>
      <point x="427" y="713" type="curve" smooth="yes"/>
      <point x="456" y="713"/>
      <point x="479" y="736"/>
      <point x="479" y="765" type="curve" smooth="yes"/>
      <point x="479" y="794"/>
      <point x="456" y="817"/>
      <point x="427" y="817" type="curve" smooth="yes"/>
      <point x="398" y="817"/>
      <point x="375" y="794"/>
    </contour>
    <contour>
      <point x="181" y="765" type="curve" smooth="yes"/>
      <point x="181" y="736"/>
      <point x="204" y="713"/>
      <point x="233" y="713" type="curve" smooth="yes"/>
      <point x="262" y="713"/>
      <point x="285" y="736"/>
      <point x="285" y="765" type="curve" smooth="yes"/>
      <point x="285" y="794"/>
      <point x="262" y="817"/>
      <point x="233" y="817" type="curve" smooth="yes"/>
      <point x="204" y="817"/>
      <point x="181" y="794"/>
    </contour>
    <contour>
      <point x="351" y="595" type="line" smooth="yes"/>
      <point x="361" y="630"/>
      <point x="380" y="645"/>
      <point x="415" y="645" type="curve" smooth="yes"/>
      <point x="450" y="645" type="line"/>
      <point x="460" y="680" type="line"/>
      <point x="175" y="680" type="line"/>
      <point x="165" y="645" type="line"/>
      <point x="210" y="645" type="line" smooth="yes"/>
      <point x="245" y="645"/>
      <point x="256" y="630"/>
      <point x="246" y="595" type="curve" smooth="yes"/>
      <point x="99" y="85" type="line" smooth="yes"/>
      <point x="89" y="50"/>
      <point x="70" y="35"/>
      <point x="35" y="35" type="curve" smooth="yes"/>
      <point x="0" y="35" type="line"/>
      <point x="-10" y="0" type="line"/>
      <point x="275" y="0" type="line"/>
      <point x="285" y="35" type="line"/>
      <point x="240" y="35" type="line" smooth="yes"/>
      <point x="205" y="35"/>
      <point x="195" y="50"/>
      <point x="205" y="85" type="curve" smooth="yes"/>
    </contour>
  </outline>
</glyph>
<glyph name="Ntilde" format="2">
  <advance width="661"/>
  <unicode hex="00D1"/>
  <outline>
    <contour>
      <point x="719" y="595" type="line" smooth="yes"/>
      <point x="729" y="630"/>
      <point x="748" y="645"/>
      <point x="783" y="645" type="curve" smooth="yes"/>
      <point x="828" y="645" type="line"/>
      <point x="838" y="680" type="line"/>
      <point x="596" y="680" type="line"/>
      <point x="586" y="645" type="line"/>
      <point x="641" y="645" type="line" smooth="yes"/>
      <point x="676" y="645"/>
      <point x="687" y="630"/>
      <point x="677" y="595" type="curve" smooth="yes"/>
      <point x="558" y="179" type="line"/>
      <point x="364" y="680" type="line"/>
      <point x="167" y="680" type="line"/>
      <point x="158" y="648" type="line"/>
      <point x="176" y="648" type="line" smooth="yes"/>
      <point x="207" y="648"/>
      <point x="265" y="629"/>
      <point x="242" y="548" type="curve" smooth="yes"/>
      <point x="109" y="85" type="line" smooth="yes"/>
      <point x="99" y="50"/>
      <point x="80" y="35"/>
      <point x="45" y="35" type="curve" smooth="yes"/>
      <point x="0" y="35" type="line"/>
      <point x="-10" y="0" type="line"/>
      <point x="232" y="0" type="line"/>
      <point x="242" y="35" type="line"/>
      <point x="187" y="35" type="line" smooth="yes"/>
      <point x="152" y="35"/>
      <point x="141" y="50"/>
      <point x="151" y="85" type="curve" smooth="yes"/>
      <point x="266" y="487" type="line" smooth="yes"/>
      <point x="285" y="554"/>
      <point x="301" y="550"/>
      <point x="325" y="488" type="curve" smooth="yes"/>
      <point x="517" y="-12" type="line"/>
      <point x="544" y="-12" type="line"/>
    </contour>
    <contour>
      <point x="417" y="772" type="curve" smooth="yes"/>
      <point x="454" y="772"/>
      <point x="509" y="710"/>
      <point x="559" y="710" type="curve" smooth="yes"/>
      <point x="609" y="710"/>
      <point x="644" y="766"/>
      <point x="660" y="808" type="curve"/>
      <point x="638" y="816" type="line"/>
      <point x="626" y="791"/>
      <point x="608" y="768"/>
      <point x="582" y="768" type="curve" smooth="yes"/>
      <point x="545" y="768"/>
      <point x="490" y="830"/>
      <point x="440" y="830" type="curve" smooth="yes"/>
      <point x="390" y="830"/>
      <point x="355" y="774"/>
      <point x="339" y="732" type="curve"/>
      <point x="361" y="724" type="line"/>
      <point x="373" y="749"/>
      <point x="391" y="772"/>
    </contour>
  </outline>
</glyph>
<glyph name="Oacute" format="2">
  <advance width="700"/>
  <unicode hex="00D3"/>
  <outline>
    <contour>
      <point x="460" y="858" type="line"/>
      <point x="437" y="818"/>
      <point x="389" y="757"/>
      <point x="357" y="726" type="curve"/>
      <point x="365" y="704" type="line"/>
      <point x="413" y="730"/>
      <point x="533" y="816"/>
      <point x="577" y="850" type="curve"/>
      <point x="570" y="870" type="line"/>
    </contour>
    <contour>
      <point x="516" y="523" type="curve" smooth="yes"/>
      <point x="516" y="469"/>
      <point x="504" y="410"/>
      <point x="492" y="369" type="curve" smooth="yes"/>
      <point x="464" y="273" type="line" smooth="yes"/>
      <point x="437" y="182"/>
      <point x="368" y="26"/>
      <point x="267" y="26" type="curve" smooth="yes"/>
      <point x="192" y="26"/>
      <point x="170" y="88"/>
      <point x="170" y="160" type="curve" smooth="yes"/>
      <point x="170" y="210"/>
      <point x="180" y="265"/>
      <point x="192" y="306" type="curve" smooth="yes"/>
      <point x="219" y="402" type="line" smooth="yes"/>
      <point x="245" y="494"/>
      <point x="318" y="658"/>
      <point x="421" y="658" type="curve" smooth="yes"/>
      <point x="494" y="658"/>
      <point x="516" y="595"/>
    </contour>
    <contour>
      <point x="444" y="690" type="curve"/>
      <point x="434" y="691"/>
      <point x="425" y="692"/>
      <point x="415" y="692" type="curve" smooth="yes"/>
      <point x="267" y="692"/>
      <point x="127" y="536"/>
      <point x="80" y="371" type="curve" smooth="yes"/>
      <point x="67" y="324"/>
      <point x="60" y="279"/>
      <point x="60" y="237" type="curve" smooth="yes"/>
      <point x="60" y="106"/>
      <point x="123" y="7"/>
      <point x="243" y="-10" type="curve"/>
      <point x="253" y="-11"/>
      <point x="263" y="-12"/>
      <point x="272" y="-12" type="curve" smooth="yes"/>
      <point x="420" y="-12"/>
      <point x="559" y="141"/>
      <point x="606" y="306" type="curve" smooth="yes"/>
      <point x="620" y="353"/>
      <point x="626" y="399"/>
      <point x="626" y="442" type="curve" smooth="yes"/>
      <point x="626" y="573"/>
      <point x="563" y="673"/>
    </contour>
  </outline>
</glyph>
<glyph name="Ocircumflex" format="2">
  <advance width="700"/>
  <unicode hex="00D4"/>
  <outline>
    <contour>
      <point x="427" y="873" type="line"/>
      <point x="400" y="833"/>
      <point x="338" y="759"/>
      <point x="304" y="729" type="curve"/>
      <point x="312" y="707" type="line"/>
      <point x="345" y="727"/>
      <point x="404" y="769"/>
      <point x="451" y="806" type="curve"/>
      <point x="483" y="768"/>
      <point x="521" y="729"/>
      <point x="550" y="700" type="curve"/>
      <point x="572" y="708" type="line"/>
      <point x="545" y="748"/>
      <point x="505" y="829"/>
      <point x="488" y="873" type="curve"/>
    </contour>
    <contour>
      <point x="516" y="523" type="curve" smooth="yes"/>
      <point x="516" y="469"/>
      <point x="504" y="410"/>
      <point x="492" y="369" type="curve" smooth="yes"/>
      <point x="464" y="273" type="line" smooth="yes"/>
      <point x="437" y="182"/>
      <point x="368" y="26"/>
      <point x="267" y="26" type="curve" smooth="yes"/>
      <point x="192" y="26"/>
      <point x="170" y="88"/>
      <point x="170" y="160" type="curve" smooth="yes"/>
      <point x="170" y="210"/>
      <point x="180" y="265"/>
      <point x="192" y="306" type="curve" smooth="yes"/>
      <point x="219" y="402" type="line" smooth="yes"/>
      <point x="245" y="494"/>
      <point x="318" y="658"/>
      <point x="421" y="658" type="curve" smooth="yes"/>
      <point x="494" y="658"/>
      <point x="516" y="595"/>
    </contour>
    <contour>
      <point x="444" y="690" type="curve"/>
      <point x="434" y="691"/>
      <point x="425" y="692"/>
      <point x="415" y="692" type="curve" smooth="yes"/>
      <point x="267" y="692"/>
      <point x="127" y="536"/>
      <point x="80" y="371" type="curve" smooth="yes"/>
      <point x="67" y="324"/>
      <point x="60" y="279"/>
      <point x="60" y="237" type="curve" smooth="yes"/>
      <point x="60" y="106"/>
      <point x="123" y="7"/>
      <point x="243" y="-10" type="curve"/>
      <point x="253" y="-11"/>
      <point x="263" y="-12"/>
      <point x="272" y="-12" type="curve" smooth="yes"/>
      <point x="420" y="-12"/>
      <point x="559" y="141"/>
      <point x="606" y="306" type="curve" smooth="yes"/>
      <point x="620" y="353"/>
      <point x="626" y="399"/>
      <point x="626" y="442" type="curve" smooth="yes"/>
      <point x="626" y="573"/>
      <point x="563" y="673"/>
    </contour>
  </outline>
</glyph>
<glyph name="Odieresis" format="2">
  <advance width="700"/>
  <unicode hex="00D6"/>
  <outline>
    <contour>
      <point x="489" y="775" type="curve" smooth="yes"/>
      <point x="489" y="746"/>
      <point x="512" y="723"/>
      <point x="541" y="723" type="curve" smooth="yes"/>
      <point x="570" y="723"/>
      <point x="593" y="746"/>
      <point x="593" y="775" type="curve" smooth="yes"/>
      <point x="593" y="804"/>
      <point x="570" y="827"/>
      <point x="541" y="827" type="curve" smooth="yes"/>
      <point x="512" y="827"/>
      <point x="489" y="804"/>
    </contour>
    <contour>
      <point x="295" y="775" type="curve" smooth="yes"/>
      <point x="295" y="746"/>
      <point x="318" y="723"/>
      <point x="347" y="723" type="curve" smooth="yes"/>
      <point x="376" y="723"/>
      <point x="399" y="746"/>
      <point x="399" y="775" type="curve" smooth="yes"/>
      <point x="399" y="804"/>
      <point x="376" y="827"/>
      <point x="347" y="827" type="curve" smooth="yes"/>
      <point x="318" y="827"/>
      <point x="295" y="804"/>
    </contour>
    <contour>
      <point x="516" y="523" type="curve" smooth="yes"/>
      <point x="516" y="469"/>
      <point x="504" y="410" name="hr01"/>
      <point x="492" y="369" type="curve" smooth="yes"/>
      <point x="464" y="273" type="line" smooth="yes"/>
      <point x="437" y="182"/>
      <point x="368" y="26"/>
      <point x="267" y="26" type="curve" smooth="yes"/>
      <point x="192" y="26"/>
      <point x="170" y="88"/>
      <point x="170" y="160" type="curve" smooth="yes"/>
      <point x="170" y="210"/>
      <point x="180" y="265"/>
      <point x="192" y="306" type="curve" smooth="yes"/>
      <point x="219" y="402" type="line" smooth="yes"/>
      <point x="245" y="494"/>
      <point x="318" y="658"/>
      <point x="421" y="658" type="curve" smooth="yes"/>
      <point x="494" y="658"/>
      <point x="516" y="595"/>
    </contour>
    <contour>
      <point x="444" y="690" type="curve"/>
      <point x="434" y="691"/>
      <point x="425" y="692"/>
      <point x="415" y="692" type="curve" smooth="yes"/>
      <point x="267" y="692"/>
      <point x="127" y="536"/>
      <point x="80" y="371" type="curve" smooth="yes"/>
      <point x="67" y="324"/>
      <point x="60" y="279"/>
      <point x="60" y="237" type="curve" smooth="yes"/>
      <point x="60" y="106"/>
      <point x="123" y="7"/>
      <point x="243" y="-10" type="curve"/>
      <point x="253" y="-11"/>
      <point x="263" y="-12"/>
      <point x="272" y="-12" type="curve" smooth="yes"/>
      <point x="420" y="-12"/>
      <point x="559" y="141"/>
      <point x="606" y="306" type="curve" smooth="yes"/>
      <point x="620" y="353"/>
      <point x="626" y="399"/>
      <point x="626" y="442" type="curve" smooth="yes"/>
      <point x="626" y="573"/>
      <point x="563" y="673"/>
    </contour>
  </outline>
</glyph>
<glyph name="Ucircumflex" format="2">
  <advance width="742"/>
  <unicode hex="00DB"/>
  <outline>
    <contour>
      <point x="465" y="876" type="line"/>
      <point x="438" y="836"/>
      <point x="376" y="762"/>
      <point x="342" y="732" type="curve"/>
      <point x="350" y="710" type="line"/>
      <point x="383" y="730"/>
      <point x="442" y="772"/>
      <point x="489" y="809" type="curve"/>
      <point x="521" y="771"/>
      <point x="559" y="732"/>
      <point x="588" y="703" type="curve"/>
      <point x="610" y="711" type="line"/>
      <point x="583" y="751"/>
      <point x="543" y="832"/>
      <point x="526" y="876" type="curve"/>
    </contour>
    <contour>
      <point x="673" y="595" type="line" smooth="yes"/>
      <point x="683" y="630"/>
      <point x="702" y="645"/>
      <point x="737" y="645" type="curve" smooth="yes"/>
      <point x="777" y="645" type="line"/>
      <point x="787" y="680" type="line"/>
      <point x="545" y="680" type="line"/>
      <point x="535" y="645" type="line"/>
      <point x="595" y="645" type="line" smooth="yes"/>
      <point x="630" y="645"/>
      <point x="641" y="630"/>
      <point x="631" y="595" type="curve" smooth="yes"/>
      <point x="539" y="274" type="line" smooth="yes"/>
      <point x="505" y="154"/>
      <point x="437" y="31"/>
      <point x="317" y="31" type="curve" smooth="yes"/>
      <point x="206" y="31"/>
      <point x="204" y="125"/>
      <point x="251" y="288" type="curve" smooth="yes"/>
      <point x="339" y="595" type="line" smooth="yes"/>
      <point x="349" y="630"/>
      <point x="368" y="645"/>
      <point x="403" y="645" type="curve" smooth="yes"/>
      <point x="433" y="645" type="line"/>
      <point x="443" y="680" type="line"/>
      <point x="155" y="680" type="line"/>
      <point x="145" y="645" type="line"/>
      <point x="195" y="645" type="line" smooth="yes"/>
      <point x="230" y="645"/>
      <point x="241" y="630"/>
      <point x="231" y="595" type="curve" smooth="yes"/>
      <point x="151" y="318" type="line" smooth="yes"/>
      <point x="138" y="273"/>
      <point x="120" y="206"/>
      <point x="120" y="160" type="curve" smooth="yes"/>
      <point x="120" y="39"/>
      <point x="199" y="-12"/>
      <point x="297" y="-12" type="curve" smooth="yes"/>
      <point x="459" y="-12"/>
      <point x="535" y="118"/>
      <point x="575" y="257" type="curve" smooth="yes"/>
    </contour>
  </outline>
</glyph>
<glyph name="Udieresis" format="2">
  <advance width="742"/>
  <unicode hex="00DC"/>
  <outline>
    <contour>
      <point x="557" y="765" type="curve" smooth="yes"/>
      <point x="557" y="736"/>
      <point x="580" y="713"/>
      <point x="609" y="713" type="curve" smooth="yes"/>
      <point x="638" y="713"/>
      <point x="661" y="736"/>
      <point x="661" y="765" type="curve" smooth="yes"/>
      <point x="661" y="794"/>
      <point x="638" y="817"/>
      <point x="609" y="817" type="curve" smooth="yes"/>
      <point x="580" y="817"/>
      <point x="557" y="794"/>
    </contour>
    <contour>
      <point x="363" y="765" type="curve" smooth="yes"/>
      <point x="363" y="736"/>
      <point x="386" y="713"/>
      <point x="415" y="713" type="curve" smooth="yes"/>
      <point x="444" y="713"/>
      <point x="467" y="736"/>
      <point x="467" y="765" type="curve" smooth="yes"/>
      <point x="467" y="794"/>
      <point x="444" y="817"/>
      <point x="415" y="817" type="curve" smooth="yes"/>
      <point x="386" y="817"/>
      <point x="363" y="794"/>
    </contour>
    <contour>
      <point x="673" y="595" type="line" smooth="yes"/>
      <point x="683" y="630"/>
      <point x="702" y="645"/>
      <point x="737" y="645" type="curve" smooth="yes"/>
      <point x="777" y="645" type="line"/>
      <point x="787" y="680" type="line"/>
      <point x="545" y="680" type="line"/>
      <point x="535" y="645" type="line"/>
      <point x="595" y="645" type="line" smooth="yes"/>
      <point x="630" y="645"/>
      <point x="641" y="630"/>
      <point x="631" y="595" type="curve" smooth="yes"/>
      <point x="539" y="274" type="line" smooth="yes"/>
      <point x="505" y="154"/>
      <point x="437" y="31"/>
      <point x="317" y="31" type="curve" smooth="yes"/>
      <point x="206" y="31"/>
      <point x="204" y="125"/>
      <point x="251" y="288" type="curve" smooth="yes"/>
      <point x="339" y="595" type="line" smooth="yes"/>
      <point x="349" y="630"/>
      <point x="368" y="645"/>
      <point x="403" y="645" type="curve" smooth="yes"/>
      <point x="433" y="645" type="line"/>
      <point x="443" y="680" type="line"/>
      <point x="155" y="680" type="line"/>
      <point x="145" y="645" type="line"/>
      <point x="195" y="645" type="line" smooth="yes"/>
      <point x="230" y="645"/>
      <point x="241" y="630"/>
      <point x="231" y="595" type="curve" smooth="yes"/>
      <point x="151" y="318" type="line" smooth="yes"/>
      <point x="138" y="273"/>
      <point x="120" y="206"/>
      <point x="120" y="160" type="curve" smooth="yes"/>
      <point x="120" y="39"/>
      <point x="199" y="-12"/>
      <point x="297" y="-12" type="curve" smooth="yes"/>
      <point x="459" y="-12"/>
      <point x="535" y="118"/>
      <point x="575" y="257" type="curve" smooth="yes"/>
    </contour>
  </outline>
</glyph>
<glyph name="adieresis" format="2">
  <advance width="505"/>
  <unicode hex="00E4"/>
  <outline>
    <contour>
      <point x="378" y="588" type="curve" smooth="yes"/>
      <point x="378" y="559"/>
      <point x="401" y="536"/>
      <point x="430" y="536" type="curve" smooth="yes"/>
      <point x="459" y="536"/>
      <point x="482" y="559"/>
      <point x="482" y="588" type="curve" smooth="yes"/>
      <point x="482" y="617"/>
      <point x="459" y="640"/>
      <point x="430" y="640" type="curve" smooth="yes"/>
      <point x="401" y="640"/>
      <point x="378" y="617"/>
    </contour>
    <contour>
      <point x="184" y="588" type="curve" smooth="yes"/>
      <point x="184" y="559"/>
      <point x="207" y="536"/>
      <point x="236" y="536" type="curve" smooth="yes"/>
      <point x="265" y="536"/>
      <point x="288" y="559"/>
      <point x="288" y="588" type="curve" smooth="yes"/>
      <point x="288" y="617"/>
      <point x="265" y="640"/>
      <point x="236" y="640" type="curve" smooth="yes"/>
      <point x="207" y="640"/>
      <point x="184" y="617"/>
    </contour>
    <contour>
      <point x="270" y="79" type="curve"/>
      <point x="277" y="79" type="line"/>
      <point x="277" y="24"/>
      <point x="295" y="-8" name="hr01"/>
      <point x="344" y="-8" type="curve" smooth="yes"/>
      <point x="410" y="-8"/>
      <point x="459" y="62"/>
      <point x="485" y="142" type="curve"/>
      <point x="458" y="150" type="line"/>
      <point x="439" y="93"/>
      <point x="403" y="36"/>
      <point x="376" y="36" type="curve" smooth="yes"/>
      <point x="360" y="36"/>
      <point x="354" y="43"/>
      <point x="354" y="56" type="curve" smooth="yes"/>
      <point x="354" y="73"/>
      <point x="364" y="102"/>
      <point x="377" y="142" type="curve" smooth="yes"/>
      <point x="477" y="450" type="line"/>
      <point x="387" y="450" type="line"/>
      <point x="366" y="384" type="line"/>
      <point x="358" y="384" type="line"/>
      <point x="349" y="432"/>
      <point x="325" y="462"/>
      <point x="275" y="462" type="curve" smooth="yes"/>
      <point x="185" y="462"/>
      <point x="82" y="369"/>
      <point x="45" y="252" type="curve" smooth="yes"/>
      <point x="35" y="221"/>
      <point x="30" y="184"/>
      <point x="30" y="148" type="curve" smooth="yes"/>
      <point x="30" y="66"/>
      <point x="58" y="-12"/>
      <point x="132" y="-12" type="curve" smooth="yes"/>
      <point x="180" y="-12" name="hr02"/>
      <point x="232" y="26"/>
    </contour>
    <contour>
      <point x="287" y="424" type="curve" smooth="yes"/>
      <point x="324" y="424"/>
      <point x="336" y="391"/>
      <point x="336" y="348" type="curve" smooth="yes"/>
      <point x="336" y="315"/>
      <point x="329" y="276"/>
      <point x="319" y="242" type="curve"/>
      <point x="308" y="208" type="line"/>
      <point x="279" y="127"/>
      <point x="218" y="33"/>
      <point x="147" y="33" type="curve" smooth="yes"/>
      <point x="122" y="33"/>
      <point x="112" y="55"/>
      <point x="112" y="88" type="curve" smooth="yes"/>
      <point x="112" y="128"/>
      <point x="126" y="184"/>
      <point x="144" y="240" type="curve" smooth="yes"/>
      <point x="169" y="313"/>
      <point x="218" y="424"/>
    </contour>
  </outline>
</glyph>
<glyph name="ae" format="2">
  <advance width="635"/>
  <unicode hex="00E6"/>
  <outline>
    <contour>
      <point x="253" y="412" type="curve" smooth="yes"/>
      <point x="289" y="412"/>
      <point x="302" y="380"/>
      <point x="302" y="338" type="curve" smooth="yes"/>
      <point x="302" y="308"/>
      <point x="297" y="274"/>
      <point x="287" y="243" type="curve" smooth="yes"/>
      <point x="275" y="208" type="line" smooth="yes"/>
      <point x="235" y="90"/>
      <point x="183" y="44"/>
      <point x="137" y="44" type="curve" smooth="yes"/>
      <point x="74" y="44"/>
      <point x="88" y="131"/>
      <point x="123" y="240" type="curve" smooth="yes"/>
      <point x="147" y="313"/>
      <point x="192" y="412"/>
    </contour>
    <contour>
      <point x="389" y="283" type="line"/>
      <point x="414" y="341"/>
      <point x="486" y="410"/>
      <point x="525" y="410" type="curve" smooth="yes"/>
      <point x="545" y="410"/>
      <point x="556" y="400"/>
      <point x="556" y="378" type="curve" smooth="yes"/>
      <point x="556" y="320"/>
      <point x="487" y="231"/>
      <point x="402" y="231" type="curve" smooth="yes"/>
      <point x="392" y="231"/>
      <point x="383" y="232"/>
      <point x="373" y="234" type="curve"/>
    </contour>
    <contour>
      <point x="277" y="124" type="curve"/>
      <point x="281" y="36"/>
      <point x="323" y="-8"/>
      <point x="399" y="-8" type="curve" smooth="yes"/>
      <point x="468" y="-8"/>
      <point x="546" y="48"/>
      <point x="586" y="138" type="curve"/>
      <point x="558" y="148" type="line"/>
      <point x="510" y="66"/>
      <point x="453" y="41"/>
      <point x="409" y="41" type="curve" smooth="yes"/>
      <point x="339" y="41"/>
      <point x="337" y="125"/>
      <point x="363" y="202" type="curve"/>
      <point x="384" y="199"/>
      <point x="404" y="197"/>
      <point x="422" y="197" type="curve" smooth="yes"/>
      <point x="555" y="197"/>
      <point x="640" y="292"/>
      <point x="640" y="368" type="curve" smooth="yes"/>
      <point x="640" y="420"/>
      <point x="615" y="458"/>
      <point x="559" y="458" type="curve" smooth="yes"/>
      <point x="509" y="458"/>
      <point x="460" y="420"/>
      <point x="421" y="382" type="curve"/>
      <point x="444" y="460" type="line"/>
      <point x="354" y="460" type="line" name="hr02"/>
      <point x="333" y="385" type="line"/>
      <point x="322" y="431"/>
      <point x="294" y="458"/>
      <point x="246" y="458" type="curve" smooth="yes"/>
      <point x="137" y="458"/>
      <point x="10" y="318"/>
      <point x="10" y="152" type="curve" smooth="yes"/>
      <point x="10" y="71"/>
      <point x="43" y="-8"/>
      <point x="121" y="-8" type="curve" smooth="yes"/>
      <point x="176" y="-8"/>
      <point x="235" y="47"/>
    </contour>
  </outline>
</glyph>
<glyph name="egrave" format="2">
  <advance width="434"/>
  <unicode hex="00E8"/>
  <outline>
    <contour>
      <point x="270" y="694" type="curve"/>
      <point x="160" y="706" type="line"/>
      <point x="153" y="686" type="line"/>
      <point x="197" y="652"/>
      <point x="317" y="566"/>
      <point x="365" y="540" type="curve"/>
      <point x="373" y="562" type="line"/>
      <point x="341" y="593"/>
      <point x="293" y="654"/>
    </contour>
    <contour>
      <point x="278" y="462" type="curve" smooth="yes"/>
      <point x="151" y="462"/>
      <point x="25" y="318"/>
      <point x="25" y="160" type="curve" smooth="yes"/>
      <point x="25" y="68"/>
      <point x="75" y="-12"/>
      <point x="171" y="-12" type="curve" smooth="yes"/>
      <point x="248" y="-12"/>
      <point x="327" y="48"/>
      <point x="367" y="138" type="curve"/>
      <point x="337" y="148" type="line"/>
      <point x="289" y="66"/>
      <point x="239" y="32"/>
      <point x="187" y="32" type="curve" smooth="yes"/>
      <point x="133" y="32"/>
      <point x="117" y="77"/>
      <point x="117" y="123" type="curve" smooth="yes"/>
      <point x="117" y="148"/>
      <point x="123" y="177"/>
      <point x="132" y="204" type="curve"/>
      <point x="154" y="201"/>
      <point x="172" y="199"/>
      <point x="191" y="199" type="curve" smooth="yes"/>
      <point x="329" y="199"/>
      <point x="409" y="278"/>
      <point x="409" y="351" type="curve" smooth="yes"/>
      <point x="409" y="405"/>
      <point x="363" y="462"/>
    </contour>
    <contour>
      <point x="142" y="232" type="curve"/>
      <point x="160" y="285" type="line" smooth="yes"/>
      <point x="181" y="347"/>
      <point x="219" y="437"/>
      <point x="280" y="437" type="curve" smooth="yes"/>
      <point x="305" y="437"/>
      <point x="321" y="411"/>
      <point x="321" y="381" type="curve" smooth="yes"/>
      <point x="321" y="310"/>
      <point x="259" y="229"/>
      <point x="169" y="229" type="curve" smooth="yes"/>
      <point x="159" y="229"/>
      <point x="152" y="230"/>
    </contour>
  </outline>
</glyph>
<glyph name="edieresis" format="2">
  <advance width="434"/>
  <unicode hex="00EB"/>
  <outline>
    <contour>
      <point x="351" y="588" type="curve" smooth="yes"/>
      <point x="351" y="559"/>
      <point x="374" y="536"/>
      <point x="403" y="536" type="curve" smooth="yes"/>
      <point x="432" y="536"/>
      <point x="455" y="559"/>
      <point x="455" y="588" type="curve" smooth="yes"/>
      <point x="455" y="617"/>
      <point x="432" y="640"/>
      <point x="403" y="640" type="curve" smooth="yes"/>
      <point x="374" y="640"/>
      <point x="351" y="617"/>
    </contour>
    <contour>
      <point x="157" y="588" type="curve" smooth="yes"/>
      <point x="157" y="559"/>
      <point x="180" y="536"/>
      <point x="209" y="536" type="curve" smooth="yes"/>
      <point x="238" y="536"/>
      <point x="261" y="559"/>
      <point x="261" y="588" type="curve" smooth="yes"/>
      <point x="261" y="617"/>
      <point x="238" y="640"/>
      <point x="209" y="640" type="curve" smooth="yes"/>
      <point x="180" y="640"/>
      <point x="157" y="617"/>
    </contour>
    <contour>
      <point x="278" y="462" type="curve" smooth="yes"/>
      <point x="151" y="462"/>
      <point x="25" y="318"/>
      <point x="25" y="160" type="curve" smooth="yes"/>
      <point x="25" y="68"/>
      <point x="75" y="-12"/>
      <point x="171" y="-12" type="curve" smooth="yes"/>
      <point x="248" y="-12"/>
      <point x="327" y="48"/>
      <point x="367" y="138" type="curve"/>
      <point x="337" y="148" type="line"/>
      <point x="289" y="66"/>
      <point x="239" y="32"/>
      <point x="187" y="32" type="curve" smooth="yes"/>
      <point x="133" y="32"/>
      <point x="117" y="77"/>
      <point x="117" y="123" type="curve" smooth="yes"/>
      <point x="117" y="148"/>
      <point x="123" y="177"/>
      <point x="132" y="204" type="curve"/>
      <point x="154" y="201"/>
      <point x="172" y="199"/>
      <point x="191" y="199" type="curve" smooth="yes"/>
      <point x="329" y="199"/>
      <point x="409" y="278"/>
      <point x="409" y="351" type="curve" smooth="yes"/>
      <point x="409" y="405" name="hr01"/>
      <point x="363" y="462"/>
    </contour>
    <contour>
      <point x="142" y="232" type="curve"/>
      <point x="160" y="285" type="line" smooth="yes"/>
      <point x="181" y="347"/>
      <point x="219" y="437"/>
      <point x="280" y="437" type="curve" smooth="yes"/>
      <point x="305" y="437"/>
      <point x="321" y="411"/>
      <point x="321" y="381" type="curve" smooth="yes"/>
      <point x="321" y="310"/>
      <point x="259" y="229"/>
      <point x="169" y="229" type="curve" smooth="yes"/>
      <point x="159" y="229"/>
      <point x="152" y="230"/>
    </contour>
  </outline>
</glyph>
<glyph name="iacute" format="2">
  <advance width="289"/>
  <unicode hex="00ED"/>
  <outline>
    <contour>
      <point x="211" y="308" type="line" smooth="yes"/>
      <point x="221" y="334"/>
      <point x="226" y="359"/>
      <point x="226" y="380" type="curve" smooth="yes"/>
      <point x="226" y="426"/>
      <point x="202" y="458"/>
      <point x="154" y="458" type="curve" smooth="yes"/>
      <point x="86" y="458"/>
      <point x="36" y="383"/>
      <point x="10" y="300" type="curve"/>
      <point x="40" y="300" type="line"/>
      <point x="59" y="357"/>
      <point x="95" y="414"/>
      <point x="122" y="414" type="curve" smooth="yes"/>
      <point x="139" y="414"/>
      <point x="146" y="407"/>
      <point x="146" y="393" type="curve" smooth="yes"/>
      <point x="146" y="375"/>
      <point x="136" y="348"/>
      <point x="121" y="308" type="curve" smooth="yes"/>
      <point x="57" y="142" type="line" smooth="yes"/>
      <point x="47" y="116"/>
      <point x="42" y="91"/>
      <point x="42" y="70" type="curve" smooth="yes"/>
      <point x="42" y="24"/>
      <point x="66" y="-8"/>
      <point x="114" y="-8" type="curve" smooth="yes"/>
      <point x="182" y="-8"/>
      <point x="232" y="67"/>
      <point x="258" y="150" type="curve"/>
      <point x="228" y="150" type="line"/>
      <point x="209" y="93"/>
      <point x="173" y="36"/>
      <point x="146" y="36" type="curve" smooth="yes"/>
      <point x="129" y="36"/>
      <point x="122" y="43"/>
      <point x="122" y="57" type="curve" smooth="yes"/>
      <point x="122" y="75"/>
      <point x="132" y="102"/>
      <point x="147" y="142" type="curve" smooth="yes"/>
    </contour>
    <contour>
      <point x="248" y="694" type="line"/>
      <point x="225" y="654"/>
      <point x="177" y="593"/>
      <point x="145" y="562" type="curve"/>
      <point x="153" y="540" type="line"/>
      <point x="201" y="566"/>
      <point x="321" y="652"/>
      <point x="365" y="686" type="curve"/>
      <point x="358" y="706" type="line"/>
    </contour>
  </outline>
</glyph>
<glyph name="uacute" format="2">
  <advance width="544"/>
  <unicode hex="00FA"/>
  <outline>
    <contour>
      <point x="370" y="694" type="line"/>
      <point x="347" y="654"/>
      <point x="299" y="593"/>
      <point x="267" y="562" type="curve"/>
      <point x="275" y="540" type="line"/>
      <point x="323" y="566"/>
      <point x="443" y="652"/>
      <point x="487" y="686" type="curve"/>
      <point x="480" y="706" type="line"/>
    </contour>
    <contour>
      <point x="310" y="109" type="curve"/>
      <point x="318" y="109" type="line"/>
      <point x="300" y="50"/>
      <point x="313" y="-12"/>
      <point x="377" y="-12" type="curve" smooth="yes"/>
      <point x="445" y="-12"/>
      <point x="493" y="57"/>
      <point x="519" y="140" type="curve"/>
      <point x="491" y="149" type="line"/>
      <point x="472" y="92"/>
      <point x="436" y="32" name="hr01"/>
      <point x="409" y="32" type="curve" smooth="yes"/>
      <point x="372" y="32"/>
      <point x="388" y="68"/>
      <point x="410" y="138" type="curve" smooth="yes"/>
      <point x="511" y="450" type="line"/>
      <point x="421" y="450" type="line"/>
      <point x="353" y="241" type="line" smooth="yes"/>
      <point x="316" y="128"/>
      <point x="219" y="26" name="hr02"/>
      <point x="182" y="26" type="curve" smooth="yes"/>
      <point x="149" y="26"/>
      <point x="149" y="83"/>
      <point x="186" y="181" type="curve" smooth="yes"/>
      <point x="235" y="312" type="line" smooth="yes"/>
      <point x="267" y="395"/>
      <point x="248" y="462"/>
      <point x="178" y="462" type="curve" smooth="yes"/>
      <point x="110" y="462"/>
      <point x="61" y="392"/>
      <point x="35" y="309" type="curve"/>
      <point x="64" y="301" type="line"/>
      <point x="83" y="358"/>
      <point x="119" y="418"/>
      <point x="146" y="418" type="curve" smooth="yes"/>
      <point x="183" y="418"/>
      <point x="173" y="385"/>
      <point x="145" y="312" type="curve" smooth="yes"/>
      <point x="96" y="181" type="line" smooth="yes"/>
      <point x="54" y="70"/>
      <point x="90" y="-12"/>
      <point x="160" y="-12" type="curve" smooth="yes"/>
      <point x="201" y="-12"/>
      <point x="269" y="42"/>
    </contour>
  </outline>
</glyph>
<glyph name="quoteleft" format="2">
  <advance width="262"/>
  <unicode hex="2018"/>
  <outline>
    <contour>
      <point x="227" y="558" type="curve" smooth="yes"/>
      <point x="197" y="558"/>
      <point x="184" y="565"/>
      <point x="184" y="593" type="curve" smooth="yes"/>
      <point x="184" y="644"/>
      <point x="241" y="692"/>
      <point x="305" y="707" type="curve"/>
      <point x="299" y="732" type="line"/>
      <point x="225" y="718"/>
      <point x="144" y="666"/>
      <point x="144" y="550" type="curve" smooth="yes"/>
      <point x="144" y="474"/>
      <point x="176" y="437"/>
      <point x="228" y="437" type="curve" smooth="yes"/>
      <point x="264" y="437"/>
      <point x="288" y="467" name="hr01"/>
      <point x="288" y="497" type="curve" smooth="yes"/>
      <point x="288" y="528"/>
      <point x="264" y="558"/>
    </contour>
  </outline>
</glyph>
<glyph name="trademark" format="2">
  <advance width="634"/>
  <unicode hex="2122"/>
  <outline>
    <contour>
      <point x="245" y="480" type="curve" smooth="yes"/>
      <point x="308" y="698" type="line" smooth="yes"/>
      <point x="312" y="711"/>
      <point x="323" y="715"/>
      <point x="336" y="715" type="curve" smooth="yes"/>
      <point x="365" y="715"/>
      <point x="371" y="669"/>
      <point x="368" y="625" type="curve"/>
      <point x="381" y="625" type="line"/>
      <point x="409" y="730" type="line"/>
      <point x="179" y="730" type="line"/>
      <point x="150" y="624" type="line"/>
      <point x="162" y="624" type="line"/>
      <point x="185" y="669"/>
      <point x="215" y="715"/>
      <point x="245" y="715" type="curve" smooth="yes"/>
      <point x="260" y="715"/>
      <point x="267" y="711"/>
      <point x="263" y="698" type="curve" smooth="yes"/>
      <point x="201" y="480" type="line" smooth="yes"/>
      <point x="197" y="465"/>
      <point x="188" y="458"/>
      <point x="174" y="458" type="curve" smooth="yes"/>
      <point x="157" y="458" type="line"/>
      <point x="152" y="444" type="line"/>
      <point x="277" y="444" type="line"/>
      <point x="281" y="458" type="line"/>
      <point x="260" y="458" type="line" smooth="yes"/>
      <point x="245" y="458"/>
      <point x="241" y="465"/>
    </contour>
    <contour>
      <point x="416" y="480" type="curve" smooth="yes"/>
      <point x="470" y="666" type="line" smooth="yes"/>
      <point x="479" y="696"/>
      <point x="488" y="693"/>
      <point x="488" y="668" type="curve" smooth="yes"/>
      <point x="489" y="608" type="line" smooth="yes"/>
      <point x="490" y="547"/>
      <point x="488" y="462"/>
      <point x="486" y="450" type="curve"/>
      <point x="497" y="450" type="line"/>
      <point x="501" y="459"/>
      <point x="546" y="539"/>
      <point x="584" y="598" type="curve" smooth="yes"/>
      <point x="618" y="651" type="line" smooth="yes"/>
      <point x="629" y="669"/>
      <point x="636" y="666"/>
      <point x="632" y="652" type="curve" smooth="yes"/>
      <point x="582" y="480" type="line" smooth="yes"/>
      <point x="578" y="465"/>
      <point x="571" y="458"/>
      <point x="555" y="458" type="curve" smooth="yes"/>
      <point x="541" y="458" type="line"/>
      <point x="537" y="444" type="line"/>
      <point x="655" y="444" type="line"/>
      <point x="659" y="458" type="line"/>
      <point x="640" y="458" type="line" smooth="yes"/>
      <point x="625" y="458"/>
      <point x="621" y="465"/>
      <point x="625" y="480" type="curve" smooth="yes"/>
      <point x="686" y="694" type="line" smooth="yes"/>
      <point x="690" y="709"/>
      <point x="699" y="716"/>
      <point x="714" y="716" type="curve" smooth="yes"/>
      <point x="728" y="716" type="line"/>
      <point x="733" y="730" type="line"/>
      <point x="649" y="730" type="line"/>
      <point x="649" y="730"/>
      <point x="570" y="606"/>
      <point x="530" y="544" type="curve"/>
      <point x="527" y="730" type="line"/>
      <point x="428" y="730" type="line"/>
      <point x="424" y="716" type="line"/>
      <point x="431" y="716" type="line" smooth="yes"/>
      <point x="455" y="716"/>
      <point x="465" y="709"/>
      <point x="456" y="679" type="curve" smooth="yes"/>
      <point x="398" y="480" type="line" smooth="yes"/>
      <point x="394" y="465"/>
      <point x="386" y="458"/>
      <point x="371" y="458" type="curve" smooth="yes"/>
      <point x="353" y="458" type="line"/>
      <point x="348" y="444" type="line"/>
      <point x="451" y="444" type="line"/>
      <point x="455" y="458" type="line"/>
      <point x="431" y="458" type="line" smooth="yes"/>
      <point x="417" y="458"/>
      <point x="412" y="465"/>
    </contour>
  </outline>
</glyph>
<glyph name="arrowleft" format="2">
  <advance width="1250"/>
  <unicode hex="2190"/>
  <outline>
    <contour>
      <point x="70" y="266" type="curve" smooth="yes"/>
      <point x="70" y="259"/>
      <point x="141" y="233"/>
      <point x="226" y="187" type="curve"/>
      <point x="312" y="137"/>
      <point x="371" y="93"/>
      <point x="378" y="96" type="curve" smooth="yes"/>
      <point x="381" y="98"/>
      <point x="354" y="146"/>
      <point x="336" y="199" type="curve"/>
      <point x="333" y="213"/>
      <point x="345" y="244"/>
      <point x="366" y="244" type="curve" smooth="yes"/>
      <point x="1164" y="244" type="line"/>
      <point x="1164" y="288" type="line"/>
      <point x="367" y="288" type="line" smooth="yes"/>
      <point x="343" y="288"/>
      <point x="333" y="320"/>
      <point x="336" y="331" type="curve"/>
      <point x="354" y="384"/>
      <point x="381" y="435"/>
      <point x="378" y="437" type="curve" smooth="yes"/>
      <point x="371" y="440"/>
      <point x="312" y="395"/>
      <point x="226" y="345" type="curve"/>
      <point x="141" y="299"/>
      <point x="70" y="273"/>
    </contour>
  </outline>
</glyph>
<glyph name="fl" format="2">
  <advance width="663"/>
  <unicode hex="FB02"/>
  <outline>
    <contour>
      <point x="51" y="418" type="line"/>
      <point x="168" y="418" type="line"/>
      <point x="56" y="74" type="line" smooth="yes"/>
      <point x="23" y="-26"/>
      <point x="-27" y="-217"/>
      <point x="-119" y="-217" type="curve" smooth="yes"/>
      <point x="-138" y="-217"/>
      <point x="-146" y="-212"/>
      <point x="-146" y="-203" type="curve" smooth="yes"/>
      <point x="-146" y="-190"/>
      <point x="-113" y="-177"/>
      <point x="-113" y="-138" type="curve" smooth="yes"/>
      <point x="-113" y="-105"/>
      <point x="-139" y="-80"/>
      <point x="-171" y="-80" type="curve" smooth="yes"/>
      <point x="-204" y="-80"/>
      <point x="-233" y="-103"/>
      <point x="-233" y="-152" type="curve" smooth="yes"/>
      <point x="-233" y="-202"/>
      <point x="-185" y="-248"/>
      <point x="-113" y="-248" type="curve" smooth="yes"/>
      <point x="63" y="-248"/>
      <point x="144" y="37"/>
      <point x="198" y="202" type="curve" smooth="yes"/>
      <point x="268" y="418" type="line"/>
      <point x="391" y="418" type="line"/>
      <point x="401" y="450" type="line"/>
      <point x="278" y="450" type="line"/>
      <point x="309" y="548"/>
      <point x="350" y="682"/>
      <point x="448" y="682" type="curve" smooth="yes"/>
      <point x="467" y="682"/>
      <point x="485" y="677"/>
      <point x="485" y="666" type="curve" smooth="yes"/>
      <point x="485" y="649"/>
      <point x="454" y="640"/>
      <point x="454" y="605" type="curve" smooth="yes"/>
      <point x="454" y="575"/>
      <point x="478" y="552"/>
      <point x="508" y="552" type="curve" smooth="yes"/>
      <point x="512" y="552"/>
      <point x="515" y="552"/>
      <point x="519" y="553" type="curve"/>
      <point x="385" y="142" type="line" smooth="yes"/>
      <point x="358" y="59"/>
      <point x="387" y="-8"/>
      <point x="462" y="-8" type="curve" smooth="yes"/>
      <point x="522" y="-8"/>
      <point x="591" y="50"/>
      <point x="629" y="171" type="curve"/>
      <point x="599" y="171" type="line"/>
      <point x="564" y="67"/>
      <point x="506" y="36"/>
      <point x="481" y="36" type="curve" smooth="yes"/>
      <point x="442" y="36"/>
      <point x="452" y="72"/>
      <point x="475" y="142" type="curve" smooth="yes"/>
      <point x="643" y="658" type="line"/>
      <point x="555" y="656" type="line"/>
      <point x="537" y="688"/>
      <point x="497" y="713"/>
      <point x="442" y="713" type="curve" smooth="yes"/>
      <point x="305" y="713"/>
      <point x="229" y="580"/>
      <point x="180" y="450" type="curve"/>
      <point x="61" y="450" type="line"/>
    </contour>
  </outline>
</glyph>
